<?xml version="1.0" standalone="no"?>
<!DOCTYPE svg PUBLIC "-//W3C//DTD SVG 20010904//EN"
 "http://www.w3.org/TR/2001/REC-SVG-20010904/DTD/svg10.dtd">
<svg version="1.0" xmlns="http://www.w3.org/2000/svg"
 width="1080.000000pt" height="1764.000000pt" viewBox="0 0 1080.000000 1764.000000"
 preserveAspectRatio="xMidYMid meet">

<g transform="translate(0.000000,1764.000000) scale(0.100000,-0.100000)"
fill="#000000" stroke="none">
<path d="M0 10902 l0 -6738 28 -10 c17 -6 35 -25 45 -46 15 -32 17 -130 19
-1119 3 -1327 7 -1760 18 -1734 7 17 9 17 9 3 1 -10 6 -18 12 -18 8 0 10 17 7
50 -4 43 -3 47 8 32 7 -9 14 -24 14 -32 0 -9 6 -22 12 -29 11 -11 11 -14 0
-18 -22 -8 -13 -20 28 -32 30 -9 40 -17 40 -32 0 -11 4 -18 9 -14 5 3 13 1 16
-5 4 -6 1 -9 -7 -8 -8 2 -14 -9 -16 -29 -3 -27 4 -39 41 -76 l45 -44 12 26 13
26 8 -29 c9 -31 3 -317 -7 -348 -6 -19 -24 -25 -24 -8 0 19 -30 10 -60 -19
-30 -28 -39 -51 -20 -51 14 0 12 -22 -5 -44 -13 -17 -15 -17 -40 10 -16 17
-22 30 -15 34 13 8 3 37 -16 44 -11 4 -14 -7 -14 -58 0 -43 4 -66 13 -69 6 -2
8 -8 4 -13 -4 -5 -12 -2 -17 6 -6 10 -10 2 -13 -25 -2 -22 -3 -11 -1 25 2 36
-3 108 -10 160 -9 65 -14 82 -15 53 0 -24 -5 -43 -11 -43 -6 0 -10 -120 -10
-340 l0 -340 305 0 305 0 0 35 c0 19 4 35 10 35 5 0 13 12 16 28 4 15 10 32
14 37 4 6 10 40 13 78 2 37 9 73 15 80 5 6 13 38 17 69 9 68 27 76 44 19 6
-22 27 -63 46 -91 19 -29 35 -57 35 -64 0 -21 45 -106 56 -106 14 0 24 -23 24
-57 0 -29 35 -62 67 -63 20 0 21 3 13 26 -6 14 -10 37 -10 52 0 20 3 23 12 14
17 -17 25 -15 31 7 4 15 -2 22 -24 30 -16 5 -29 15 -29 22 0 6 -9 20 -21 30
-25 21 -52 74 -70 133 -9 32 -19 46 -34 48 -30 4 -85 118 -85 177 0 78 11 123
28 116 8 -3 21 3 28 12 13 17 15 17 28 0 11 -14 24 -17 58 -14 35 4 47 0 64
-18 11 -12 27 -26 35 -31 19 -12 69 -79 92 -124 20 -40 49 -210 47 -283 0 -34
4 -49 15 -53 8 -3 15 -17 15 -31 0 -13 5 -33 10 -43 8 -15 6 -24 -12 -42 -14
-14 -23 -18 -26 -10 -4 13 -22 6 -22 -9 0 -5 54 -9 125 -9 69 0 125 2 125 4 0
2 -7 20 -15 40 -15 36 -13 56 6 56 5 0 9 -14 9 -31 0 -16 4 -28 9 -24 5 3 11
-5 13 -17 l3 -23 334 -3 c326 -2 334 -2 348 18 8 11 19 17 25 14 6 -4 17 1 24
11 8 10 17 15 21 10 5 -4 3 -10 -4 -12 -10 -3 -10 -9 0 -24 12 -19 34 -19 919
-19 l907 0 7 22 c3 12 19 36 35 52 16 17 27 37 24 44 -3 7 -1 11 4 8 11 -7 21
17 21 49 0 13 5 27 12 31 7 5 8 3 3 -6 -5 -8 -3 -11 6 -8 8 3 14 19 14 40 0
19 5 41 11 49 6 8 30 52 52 99 23 47 41 78 42 70 0 -29 25 10 27 43 0 18 2 36
2 40 2 16 41 -15 41 -33 0 -22 16 -35 25 -21 3 6 13 7 22 4 9 -4 21 1 29 12
11 14 11 20 -1 31 -7 8 -18 14 -24 14 -11 0 -13 7 -14 47 0 14 -5 19 -13 16
-8 -3 -11 -10 -8 -15 4 -6 1 -9 -7 -6 -8 2 -15 19 -17 37 -3 32 -3 33 27 26
27 -6 31 -4 31 14 0 12 -5 21 -12 21 -6 0 -3 6 7 14 17 12 19 24 17 75 -3 62
-3 62 22 55 17 -4 31 -1 41 10 11 10 25 14 40 10 20 -5 23 -3 18 14 -2 11 0
29 6 41 8 14 8 21 1 21 -5 0 -10 6 -10 13 0 7 -9 21 -21 30 -12 11 -18 25 -15
33 3 9 6 45 6 80 l0 64 26 -16 c20 -13 25 -24 22 -45 -3 -19 0 -25 9 -22 7 3
13 0 13 -6 0 -14 47 -15 55 -1 3 5 13 10 22 10 9 0 13 -3 10 -7 -4 -3 -2 -12
4 -20 8 -9 8 -13 1 -13 -6 0 -14 5 -17 11 -5 6 -13 2 -22 -11 -17 -25 -10 -38
11 -21 11 9 16 9 22 0 4 -8 3 -9 -4 -5 -7 4 -12 2 -12 -3 0 -6 18 -11 41 -11
35 0 40 -2 34 -19 -5 -17 -2 -19 22 -17 15 2 30 4 32 5 2 0 -2 8 -9 16 -10 12
-10 15 3 15 9 0 22 -6 29 -14 8 -7 23 -16 34 -20 11 -3 29 -14 40 -24 10 -10
33 -24 51 -31 17 -7 34 -19 37 -27 3 -8 12 -14 20 -14 9 0 23 -9 33 -19 15
-16 21 -17 36 -7 15 12 15 15 2 26 -20 17 -19 40 3 40 9 0 63 -7 119 -14 65
-9 116 -11 140 -6 21 5 39 7 42 5 2 -2 13 0 23 6 33 18 6 31 -68 33 -41 2 -69
7 -72 14 -2 7 -19 19 -37 28 -44 21 -52 43 -23 66 l23 18 -45 1 c-25 1 -52 1
-60 0 -8 -1 -19 -2 -25 -1 -132 6 -165 14 -165 36 0 16 36 19 45 4 10 -16 25
-11 25 9 0 20 37 30 135 36 55 4 152 27 185 45 11 6 31 8 43 4 26 -9 78 -5 92
6 6 4 20 10 33 12 50 7 23 24 -58 35 -47 7 -86 16 -88 21 -8 25 -30 44 -42 37
-7 -5 -8 -10 -2 -14 15 -9 19 -46 5 -46 -7 0 -13 5 -14 10 -1 16 -39 26 -75
20 -87 -13 -109 -15 -89 -5 11 5 32 9 48 9 36 1 34 17 -3 36 -17 9 -30 22 -30
31 0 11 -10 14 -46 13 -33 -2 -50 2 -58 13 -6 8 -21 18 -34 22 -24 8 -30 25
-9 27 24 2 33 5 80 27 27 12 52 22 55 22 16 0 82 -70 82 -86 0 -14 3 -15 11
-7 9 9 8 18 -5 37 -9 15 -13 26 -9 26 4 0 -3 7 -15 16 -13 9 -34 33 -47 54
-14 22 -34 44 -46 50 -19 11 -20 9 -18 -17 4 -48 0 -57 -29 -73 -20 -12 -38
-14 -72 -8 -25 4 -49 6 -55 4 -5 -3 0 -5 13 -5 23 -1 32 -21 9 -21 -21 0 -45
23 -47 45 -5 45 -1 52 25 47 27 -5 35 12 10 22 -8 3 -15 12 -15 20 0 9 -9 20
-20 26 -14 8 -20 21 -20 45 0 19 5 35 11 35 7 0 10 12 7 30 -7 46 16 58 36 19
9 -17 13 -35 10 -40 -3 -5 3 -12 13 -15 10 -3 37 -27 60 -52 23 -26 45 -44 48
-40 11 10 -44 105 -82 141 -18 18 -33 36 -33 41 0 5 -7 14 -14 20 -19 14 -32
66 -18 66 6 0 15 -6 19 -14 16 -29 113 -90 113 -72 0 20 -22 56 -34 56 -8 0
-18 4 -21 10 -10 16 107 4 143 -14 40 -21 59 -21 42 -1 -10 13 -9 15 9 15 31
0 26 19 -9 32 -35 12 -35 30 0 38 38 9 36 30 -3 30 -67 0 -97 12 -147 62 -27
27 -51 53 -51 59 -3 18 -5 24 -25 56 -10 18 -22 33 -26 33 -16 0 -7 39 9 42
12 2 17 18 20 68 3 36 11 72 18 80 8 8 18 27 24 43 6 15 18 27 27 27 12 0 15
6 10 23 -4 19 4 32 42 67 26 24 46 50 44 58 -5 22 21 70 45 83 18 10 28 10 48
-1 21 -11 32 -11 60 -1 20 7 49 9 70 5 28 -5 35 -3 35 10 0 9 -7 16 -16 16
-17 0 -15 21 4 28 14 4 26 -59 19 -109 -4 -29 -2 -39 9 -39 10 0 14 -12 14
-40 0 -36 3 -40 25 -40 14 0 25 -2 25 -5 0 -10 -55 -54 -67 -55 -18 0 -16 -20
1 -20 8 0 16 -7 20 -15 3 -8 14 -15 24 -15 16 0 20 9 25 48 3 26 0 66 -6 90
-10 38 -9 45 5 53 8 5 19 25 22 44 4 19 12 35 18 35 5 0 8 7 4 15 -6 17 13 65
26 65 4 0 8 12 8 26 0 21 -4 25 -20 21 -16 -4 -20 0 -20 19 0 13 9 28 20 34
11 6 20 17 20 25 0 28 31 15 44 -17 32 -79 29 -76 33 -50 3 12 11 22 20 22 13
0 15 9 10 58 -9 89 4 102 102 102 48 0 82 5 90 13 11 10 14 10 18 0 3 -7 9
-13 15 -13 6 0 5 6 -2 16 -11 12 -10 18 4 32 21 21 52 4 49 -27 -2 -17 3 -21
25 -21 22 0 30 8 46 43 17 36 20 39 23 20 5 -29 20 -29 49 -2 17 16 27 18 41
11 38 -20 73 -23 73 -7 0 19 -2 19 44 -5 38 -19 76 -14 76 10 0 6 9 10 20 10
12 0 20 -7 20 -16 0 -14 10 -15 78 -9 42 4 79 11 80 16 2 5 21 9 43 9 35 0 39
-3 39 -25 0 -14 5 -25 10 -25 6 0 10 14 10 30 0 24 6 33 28 42 15 7 36 23 47
35 11 13 31 23 43 23 13 0 22 6 22 15 0 16 47 64 63 65 17 0 76 70 71 83 -3 8
7 21 23 32 15 10 36 26 46 36 13 14 32 19 70 18 32 0 45 -3 34 -8 -17 -6 -17
-8 -3 -20 9 -8 16 -28 16 -47 0 -35 8 -42 27 -23 6 6 38 11 71 10 57 0 62 2
86 32 15 17 31 37 36 44 6 7 10 29 11 50 0 21 3 32 6 25 6 -14 39 -16 48 -2 9
15 35 12 35 -5 0 -9 6 -12 15 -9 9 4 14 11 13 18 -3 19 25 86 37 86 6 0 29 19
50 41 22 23 34 38 26 34 -9 -5 -7 2 5 18 10 14 27 28 37 30 11 4 17 15 17 36
0 25 6 33 33 45 37 15 118 89 136 123 13 26 31 30 31 8 0 -19 19 -19 44 0 10
8 23 12 27 9 16 -10 9 -23 -13 -27 -20 -3 -20 -5 -6 -11 11 -5 24 0 38 14 11
11 25 18 30 15 4 -3 22 -7 39 -9 53 -6 82 -45 87 -118 8 -102 14 -128 29 -128
12 0 15 -14 15 -59 0 -40 5 -63 15 -71 8 -7 15 -21 15 -31 0 -10 5 -21 10 -24
8 -5 8 -11 0 -20 -6 -7 -7 -16 -2 -19 5 -3 6 -28 2 -56 -5 -36 -3 -54 7 -61
17 -15 17 -59 -2 -86 -13 -18 -13 -24 1 -52 19 -37 34 -40 34 -7 0 24 23 56
41 56 5 0 9 -7 9 -15 0 -8 9 -19 21 -26 l21 -11 -21 -19 c-11 -11 -18 -26 -15
-34 8 -21 21 -19 34 5 15 27 38 25 46 -4 4 -16 21 -32 50 -45 24 -12 48 -21
52 -21 5 0 23 -7 41 -16 18 -9 51 -18 74 -21 60 -7 99 -23 93 -39 -4 -10 3
-14 22 -14 47 0 129 -27 151 -49 11 -11 27 -22 34 -22 6 -1 22 -3 35 -4 24 -2
62 -36 62 -55 0 -5 4 -10 9 -10 5 0 14 -15 20 -33 8 -22 14 -28 20 -19 17 28
68 -28 55 -62 -3 -7 2 -16 10 -19 9 -4 16 -13 16 -21 0 -9 6 -13 14 -10 10 4
21 -13 37 -57 14 -37 31 -64 42 -67 10 -2 17 -14 17 -29 0 -13 12 -37 28 -52
15 -15 27 -34 27 -42 0 -10 24 -17 85 -26 47 -6 93 -9 103 -6 11 3 27 -4 38
-16 14 -15 27 -19 48 -15 16 4 32 1 35 -5 4 -6 2 -11 -4 -11 -6 0 -8 -5 -5
-10 4 -6 19 -9 34 -8 26 2 101 -44 101 -62 0 -4 11 -5 24 -3 20 4 24 0 30 -31
10 -50 78 -196 93 -196 6 0 16 -12 22 -27 12 -32 45 -73 58 -73 6 0 15 -11 21
-25 6 -14 16 -25 22 -25 5 0 10 -6 10 -14 0 -8 7 -16 15 -20 8 -3 15 -12 15
-21 0 -8 5 -15 10 -15 6 0 14 -8 17 -17 9 -23 35 -53 46 -53 5 0 21 -12 37
-27 15 -16 34 -32 42 -38 27 -19 58 -35 58 -30 0 8 -88 95 -97 95 -9 1 -83 68
-83 75 0 3 -13 19 -30 37 -16 17 -30 36 -30 43 0 6 -12 22 -26 36 -48 45 -84
107 -114 200 -16 51 -30 96 -30 99 1 3 13 -17 27 -45 14 -27 29 -52 33 -55 4
-3 27 -34 51 -69 24 -35 56 -80 70 -100 14 -20 23 -43 21 -51 -3 -8 -1 -12 3
-8 10 9 37 -11 30 -22 -5 -8 65 -93 72 -87 2 3 -6 21 -18 41 -11 20 -17 36
-12 36 4 0 37 -27 72 -60 35 -33 69 -60 74 -60 6 0 18 -6 26 -14 9 -8 59 -36
111 -61 102 -51 176 -65 240 -47 l35 10 -33 1 c-37 1 -122 36 -122 51 0 5 9
14 19 20 19 10 34 6 96 -22 20 -9 42 -10 169 -10 63 1 86 6 75 17 -3 2 -43 6
-89 8 -67 3 -86 8 -88 20 -4 20 46 31 80 18 14 -5 29 -7 32 -4 17 17 -1 23
-68 23 -55 0 -84 5 -108 19 -18 11 -52 22 -75 26 -23 4 -47 13 -54 21 -6 8
-18 14 -25 14 -8 0 -14 11 -14 26 0 22 -3 25 -23 20 -24 -6 -87 26 -87 44 0
14 23 13 38 -2 6 -6 15 -9 19 -5 9 10 -45 65 -71 73 -26 8 -76 60 -76 80 0 13
5 12 30 -2 24 -15 35 -16 62 -7 34 11 94 6 193 -17 57 -13 235 -28 235 -20 0
16 -27 30 -56 30 -27 0 -32 3 -29 20 2 11 6 24 10 30 10 16 -27 28 -105 35
-73 6 -215 30 -255 43 -14 4 -5 9 34 16 81 16 76 33 -12 41 -74 7 -115 21 -89
32 23 9 12 21 -27 28 -62 10 -75 24 -66 74 7 41 7 41 41 35 51 -9 87 2 81 26
-3 11 -1 20 5 20 22 0 84 55 101 91 10 21 36 56 57 78 22 23 40 45 40 49 0 9
169 182 178 182 3 0 11 8 18 18 22 30 31 -14 10 -53 -21 -38 -15 -70 16 -86
16 -9 18 -13 7 -20 -7 -4 -10 -11 -6 -15 9 -9 46 36 47 57 0 18 20 29 50 29 9
0 23 7 30 15 19 23 43 19 35 -5 -4 -11 -2 -20 4 -20 8 0 11 2185 11 7480 l0
7480 -5400 0 -5400 0 0 -6738z m9196 3173 c16 -8 41 -15 57 -15 15 0 27 -4 27
-8 0 -4 13 -15 29 -25 19 -11 31 -28 35 -51 6 -33 8 -34 61 -38 31 -3 63 -12
73 -21 10 -9 27 -17 38 -18 10 0 33 -9 49 -20 31 -19 43 -25 71 -34 11 -3 14
-12 11 -25 -3 -11 -2 -20 3 -20 4 0 12 -19 17 -42 10 -39 11 -40 12 -13 1 26
3 27 12 12 5 -9 7 -22 4 -27 -3 -6 1 -10 10 -10 12 0 15 -5 10 -17 -15 -37
-11 -48 18 -45 21 2 27 -1 27 -17 0 -11 12 -28 27 -39 23 -17 26 -26 25 -68
-1 -28 4 -61 13 -78 8 -15 15 -34 15 -42 0 -9 12 -6 37 12 l37 25 8 -21 c4
-12 17 -24 28 -27 29 -8 19 -27 -16 -33 -17 -3 -33 -15 -41 -29 -14 -29 -9
-41 18 -41 11 0 30 -11 42 -24 12 -13 33 -27 46 -31 20 -6 22 -11 16 -39 -17
-82 -8 -116 31 -116 13 0 15 -6 10 -31 -3 -17 -6 -38 -6 -45 0 -8 -7 -14 -15
-14 -8 0 -15 5 -15 10 0 6 -4 10 -9 10 -15 0 1 -104 18 -117 14 -12 14 -14 -3
-28 -14 -10 -22 -12 -27 -4 -13 21 -49 -32 -49 -73 0 -27 -4 -38 -15 -38 -8 0
-15 -4 -15 -10 0 -5 4 -10 9 -10 6 0 13 5 16 10 3 6 19 10 36 10 33 0 40 -23
11 -39 -14 -7 -21 -31 -30 -103 -7 -59 -8 -94 -2 -96 20 -7 11 -81 -12 -104
l-22 -22 -6 24 c-6 22 -8 19 -14 -18 -4 -23 -15 -56 -23 -72 -8 -17 -12 -40
-8 -52 16 -57 28 -78 46 -78 26 0 24 -14 -6 -44 -27 -27 -25 -51 6 -59 20 -5
26 -32 9 -42 -20 -12 -9 -24 26 -31 l37 -7 -24 -18 -24 -19 26 0 c34 0 39 -14
39 -101 0 -39 4 -75 10 -82 5 -7 21 -27 36 -44 14 -18 34 -33 44 -33 12 0 21
-13 29 -47 25 -99 34 -129 43 -148 5 -12 10 -29 12 -39 1 -9 21 -34 43 -54 32
-29 43 -46 47 -80 6 -43 6 -43 -21 -40 -22 2 -29 9 -33 33 -4 22 -11 31 -28
33 -19 3 -22 -1 -22 -27 0 -36 -18 -41 -45 -11 -20 22 -36 25 -63 11 -33 -16
-117 -43 -151 -48 -34 -6 -132 11 -163 28 -37 19 -71 -4 -45 -30 8 -8 3 -11
-20 -11 -17 0 -36 7 -43 15 -13 16 -35 21 -25 6 7 -13 -14 -25 -45 -27 -51 -4
-152 -23 -163 -32 -49 -37 -252 -74 -232 -42 10 16 -86 11 -115 -5 -14 -8 -33
-14 -42 -15 -9 0 -34 -11 -54 -25 -20 -14 -45 -25 -56 -25 -10 0 -38 -10 -61
-21 -37 -19 -40 -23 -22 -30 11 -4 14 -8 7 -8 -7 -1 -12 -9 -10 -18 2 -9 -6
-22 -17 -28 -11 -6 -39 -30 -61 -53 -31 -32 -49 -42 -73 -42 -31 0 -32 -2 -36
-52 -1 -30 -35 -58 -61 -52 -18 5 -24 2 -25 -10 -3 -32 -4 -35 -24 -50 -19
-14 -19 -15 -1 -16 12 0 16 -5 12 -16 -3 -9 -6 -22 -6 -29 0 -8 -10 -15 -22
-17 -20 -3 -24 -11 -30 -58 -22 -168 -26 -189 -52 -222 -24 -32 -24 -35 -9
-51 14 -14 15 -20 4 -41 -7 -13 -10 -29 -7 -35 4 -6 3 -11 -2 -11 -13 0 -22
-53 -32 -205 -4 -76 -4 -137 1 -147 5 -9 9 -34 9 -55 0 -59 19 -116 48 -141
24 -21 25 -24 12 -62 -7 -22 -11 -43 -7 -46 3 -4 23 -2 44 4 l38 10 -32 1
c-18 1 -33 5 -33 9 0 14 23 32 42 32 11 0 18 7 18 18 0 10 9 24 20 32 21 15
27 45 10 55 -13 8 -13 42 1 103 7 36 17 53 34 62 18 10 22 17 15 26 -8 9 -6
12 7 10 12 -1 17 5 15 17 -5 29 45 87 74 87 13 0 24 -4 24 -10 0 -5 -4 -10
-10 -10 -5 0 -10 -9 -10 -19 0 -29 -46 -115 -54 -102 -10 16 -26 14 -26 -4 0
-8 5 -15 10 -15 15 0 12 -27 -5 -53 -16 -25 -33 -22 173 -27 34 0 62 -5 62
-11 0 -11 139 -9 146 3 6 10 67 2 151 -19 70 -18 151 -13 188 11 13 8 26 12
30 8 9 -9 125 -10 119 0 -2 3 -20 12 -39 18 -35 12 -48 30 -20 30 8 0 15 7 15
15 0 24 29 30 44 10 9 -13 15 -15 20 -6 11 17 36 -5 36 -31 0 -13 4 -17 13
-12 8 6 8 3 -2 -9 -12 -15 -10 -18 14 -27 14 -5 34 -10 43 -10 9 0 35 -5 57
-11 l39 -11 -24 -14 c-14 -7 -41 -13 -60 -13 -82 1 -271 -18 -282 -29 -19 -19
-28 -14 -44 24 -12 29 -18 33 -29 24 -8 -7 -17 -28 -21 -47 -6 -30 -10 -34
-33 -31 -20 2 -27 9 -29 31 -3 25 -32 41 -32 17 0 -6 -12 -15 -27 -21 -35 -13
-53 3 -35 32 20 32 6 35 -38 10 -34 -19 -49 -21 -98 -16 -31 4 -69 13 -85 20
-32 16 -74 7 -113 -24 -15 -12 -33 -21 -40 -21 -9 0 -11 -10 -7 -35 4 -28 2
-35 -11 -35 -18 0 -22 15 -6 25 6 3 10 10 10 16 0 5 -4 9 -10 9 -5 0 -10 -7
-10 -15 0 -8 -6 -15 -14 -15 -8 0 -18 -9 -21 -20 -4 -11 -10 -18 -15 -15 -12
8 -50 -17 -50 -32 0 -7 11 -13 24 -13 13 0 26 -4 28 -9 2 -6 26 -12 54 -14 60
-5 74 -11 68 -35 -4 -13 7 -22 41 -36 25 -10 51 -16 59 -13 9 4 16 -3 20 -16
8 -31 55 -79 72 -73 7 3 18 -4 24 -14 6 -11 17 -20 25 -20 7 0 20 -6 27 -14
21 -20 74 -46 97 -46 11 0 23 -4 26 -10 9 -14 42 -12 48 3 3 7 6 6 6 -5 1 -19
31 -31 55 -22 9 3 16 1 16 -5 0 -6 11 -11 25 -11 14 0 28 -7 31 -15 4 -8 14
-15 23 -15 9 0 22 -5 29 -12 8 -8 15 -8 24 -1 9 7 32 7 68 2 30 -5 87 -13 125
-18 75 -10 124 -20 140 -29 5 -3 28 -5 52 -3 40 2 59 -11 31 -22 -10 -4 -10
-6 0 -6 7 -1 28 15 48 34 l35 35 -36 0 c-19 0 -35 5 -35 10 0 6 15 10 33 10
24 0 28 3 17 10 -12 8 -11 10 8 10 15 0 22 -6 22 -20 0 -21 15 -27 25 -10 9
15 42 12 70 -6 13 -9 33 -13 43 -10 17 6 19 1 20 -49 0 -44 5 -60 21 -74 23
-20 37 -86 27 -128 -6 -21 -9 -24 -17 -12 -7 12 -9 12 -9 -1 0 -13 -1 -13 -10
0 -7 11 -10 2 -10 -33 0 -33 9 -65 30 -106 26 -53 28 -60 14 -77 -11 -14 -17
-15 -20 -6 -9 20 -24 3 -24 -26 1 -24 2 -25 11 -8 26 44 39 -45 17 -119 -6
-22 -11 -43 -10 -47 1 -5 -1 -7 -6 -7 -43 7 -47 0 -73 -135 -10 -55 -23 -102
-28 -105 -5 -3 -12 -26 -16 -51 -7 -48 -31 -110 -43 -110 -4 0 -7 -24 -7 -52
0 -29 -4 -66 -8 -81 -5 -19 -4 -27 2 -22 7 3 8 0 5 -9 -3 -9 -15 -16 -25 -16
-10 0 -19 -7 -19 -15 0 -8 -10 -25 -22 -37 -19 -19 -20 -25 -9 -52 10 -27 8
-37 -14 -79 -14 -27 -25 -64 -25 -82 0 -31 -21 -65 -40 -65 -14 0 -9 -88 6
-101 22 -18 17 -34 -20 -62 -33 -26 -33 -26 -28 -96 3 -57 1 -78 -17 -114 -11
-24 -21 -50 -21 -59 0 -21 -26 -42 -35 -28 -3 5 2 10 11 10 16 0 16 1 -1 14
-38 27 -63 -14 -30 -48 16 -16 20 -46 6 -46 -5 0 -7 -9 -4 -21 4 -14 -1 -25
-16 -35 -11 -8 -21 -21 -21 -28 0 -8 -6 -19 -14 -25 -14 -12 -10 -51 5 -51 5
0 9 -4 9 -10 0 -5 -10 -10 -23 -10 -13 0 -33 -9 -45 -20 -12 -11 -25 -20 -30
-20 -4 0 -8 -24 -8 -53 0 -29 -3 -57 -6 -62 -13 -21 -48 -136 -48 -157 0 -15
-9 -27 -22 -33 -13 -6 -23 -19 -23 -31 0 -11 -6 -28 -13 -36 -16 -20 -38 -99
-46 -166 -6 -42 -13 -59 -38 -81 -20 -18 -31 -38 -32 -56 -1 -22 -7 -31 -26
-36 -14 -4 -22 -7 -17 -8 4 -1 -6 -20 -23 -43 -16 -22 -30 -45 -30 -49 0 -5
-16 -24 -35 -44 -26 -25 -44 -35 -67 -35 -25 0 -29 -3 -20 -12 18 -18 15 -52
-8 -81 -11 -14 -20 -29 -20 -33 0 -5 -10 -18 -22 -29 -27 -23 -61 -72 -71 -98
-4 -11 -15 -21 -25 -24 -24 -6 -56 -59 -48 -80 8 -21 -2 -53 -17 -53 -13 0
-37 -45 -37 -67 0 -8 -7 -16 -15 -19 -8 -4 -15 -14 -15 -25 0 -10 -14 -26 -30
-36 -22 -13 -32 -27 -36 -55 -8 -44 -40 -101 -54 -93 -6 3 -10 -1 -10 -9 0 -9
-6 -16 -13 -16 -8 0 -22 -9 -32 -20 -15 -16 -16 -22 -5 -36 12 -13 11 -17 -1
-25 -8 -5 -10 -9 -6 -9 4 0 3 -9 -3 -20 -6 -11 -15 -18 -20 -15 -13 8 -40 -6
-40 -21 0 -8 -5 -14 -12 -14 -9 0 -9 -3 0 -12 20 -20 15 -41 -8 -35 -15 4 -20
0 -20 -13 0 -10 -19 -31 -43 -47 -24 -16 -42 -34 -39 -41 2 -7 -9 -15 -28 -19
-23 -4 -35 -14 -42 -34 -5 -16 -16 -29 -23 -29 -6 0 -25 -12 -40 -26 -18 -17
-35 -24 -49 -20 -33 8 -66 -4 -66 -25 0 -10 -5 -19 -10 -19 -6 0 -22 -12 -35
-26 -19 -21 -25 -23 -25 -10 0 17 -23 20 -55 6 -18 -8 -18 -9 5 -10 l25 -2
-25 -7 c-18 -5 -26 -3 -28 7 -4 14 -17 14 -237 -3 -11 -1 -40 -7 -64 -14 -23
-7 -50 -10 -57 -7 -8 3 -17 -1 -20 -9 -4 -8 -10 -15 -16 -15 -5 0 -7 4 -4 9 7
11 -27 21 -71 21 -17 0 -34 4 -37 9 -4 5 -35 9 -70 10 -51 0 -67 -4 -81 -19
-10 -11 -29 -20 -42 -20 -12 0 -23 -4 -23 -10 0 -13 -47 -13 -55 1 -4 6 -13 8
-21 5 -8 -3 -14 -1 -14 4 0 5 -13 7 -29 4 -16 -3 -31 -1 -35 4 -3 6 -21 8 -40
5 -22 -3 -49 2 -81 16 -27 12 -65 24 -87 27 -21 4 -38 10 -38 14 0 10 -37 19
-107 26 -59 5 -118 21 -140 37 -7 5 -13 26 -13 46 0 20 -5 43 -10 51 -8 12
-10 12 -10 1 0 -26 -14 -1 -16 29 -1 21 3 30 13 30 12 0 14 9 11 37 -3 21 -8
47 -13 57 -7 17 -5 18 28 12 24 -4 37 -3 37 4 0 5 7 10 15 10 9 0 19 8 22 18
10 27 24 32 90 32 34 0 64 4 67 9 3 4 35 11 71 14 36 3 74 11 85 17 14 8 38 8
78 1 31 -6 119 -12 194 -15 76 -2 142 -7 148 -11 5 -3 10 -2 10 2 0 5 57 10
127 11 70 2 145 7 168 12 22 5 62 10 88 10 26 0 58 6 70 14 12 7 50 16 84 20
35 3 76 14 95 26 22 13 50 20 86 20 60 0 142 18 142 31 0 32 14 47 61 61 22 6
39 16 39 23 0 6 15 16 33 23 41 15 97 16 97 2 0 -5 14 -10 30 -10 28 0 30 2
30 38 0 31 7 47 37 77 21 21 38 46 38 54 5 57 5 58 19 32 l13 -24 11 32 c8 23
8 31 -1 31 -15 0 4 18 34 34 22 10 29 27 44 98 3 16 12 28 20 28 17 0 20 26 5
35 -5 3 -10 15 -10 26 0 16 -7 19 -40 19 -35 0 -40 3 -40 23 0 13 -6 29 -12
36 -10 11 -10 14 0 18 6 3 12 13 12 23 0 10 6 20 13 23 9 3 9 9 -1 27 -14 23
-13 26 46 67 16 11 20 18 11 23 -8 5 -9 20 -5 44 l7 36 83 0 84 0 11 30 c5 17
17 30 27 30 9 0 14 5 11 14 -6 15 27 74 50 91 8 6 14 29 15 58 0 43 3 47 24
47 29 0 30 9 3 55 -12 19 -19 44 -16 55 3 11 1 20 -4 20 -5 0 -9 16 -9 35 0
22 -6 38 -15 41 -8 4 -15 14 -15 24 0 13 -11 19 -45 24 -50 8 -115 -10 -115
-31 0 -7 -4 -13 -8 -13 -7 0 -42 -63 -42 -75 0 -3 8 -5 18 -6 14 0 14 -2 -3
-8 -11 -5 -26 -6 -32 -4 -7 3 -27 -4 -45 -15 -43 -26 -71 -30 -91 -14 -13 11
-18 11 -27 -5 -10 -15 -22 -17 -70 -15 -35 2 -64 9 -71 18 -6 8 -22 14 -36 14
-13 0 -34 5 -45 11 -11 6 -35 13 -52 14 -33 3 -125 20 -166 30 -19 5 -42 -3
-85 -28 -33 -19 -86 -42 -117 -51 -31 -9 -59 -20 -63 -25 -6 -11 -42 -3 -71
16 -23 14 -167 28 -231 22 -10 -1 -47 0 -82 4 -36 3 -90 1 -120 -4 -31 -6 -88
-10 -127 -9 -54 0 -76 -3 -88 -16 -12 -12 -27 -15 -54 -10 -20 3 -91 8 -156
10 -66 3 -132 10 -147 16 l-27 12 20 20 c15 15 17 23 9 31 -6 6 -11 18 -11 26
0 9 -5 23 -10 31 -9 13 -11 13 -20 0 -10 -13 -11 -13 -9 0 4 37 -1 43 -31 37
-33 -7 -52 11 -26 25 16 9 21 52 10 82 -5 12 -10 14 -19 6 -9 -8 -14 -6 -19 5
-3 9 0 15 9 15 16 0 20 16 7 24 -18 11 -30 -12 -33 -60 -1 -27 0 -55 4 -61 8
-12 -20 -26 -33 -18 -5 3 -7 29 -5 58 2 28 7 86 10 127 3 41 12 106 20 144 8
38 12 73 9 78 -7 11 -44 -46 -44 -68 0 -8 -5 -12 -10 -9 -6 4 -8 9 -6 13 5 9
-20 32 -28 25 -10 -10 -7 44 5 74 5 15 15 30 20 34 16 10 23 117 9 134 -6 8
-9 22 -6 32 3 10 8 68 11 128 3 61 8 120 11 132 2 12 9 63 15 115 6 51 15 120
19 153 4 33 13 107 19 165 6 58 14 112 17 120 4 8 9 80 11 160 2 80 9 150 14
156 5 6 12 58 14 115 3 57 10 129 16 159 5 30 10 69 9 87 0 17 6 49 14 70 8
21 17 51 21 67 3 17 15 42 26 57 10 15 19 36 19 47 0 12 5 33 11 49 6 15 12
35 14 43 2 8 11 40 20 70 9 30 18 64 20 75 2 11 10 40 19 64 9 24 13 53 10 65
-7 28 18 50 46 41 28 -9 39 21 14 40 -11 8 -14 15 -8 15 7 0 14 10 17 22 5 19
8 20 23 7 13 -11 18 -11 21 -1 5 14 69 16 78 2 4 -6 -6 -10 -23 -10 -36 0 -61
-25 -44 -42 9 -9 12 -8 12 5 0 10 8 17 20 17 23 0 23 0 10 -36 -11 -29 -4 -68
11 -59 5 4 9 26 9 51 0 33 4 44 16 44 11 0 14 -6 9 -22 -7 -23 -7 -23 11 1 16
22 16 25 1 36 -28 20 -19 27 31 24 43 -3 47 -2 50 21 2 14 10 32 17 40 7 8 17
27 20 43 7 27 25 47 25 28 0 -6 5 -11 11 -11 6 0 9 6 6 14 -3 7 2 24 11 37 9
13 15 34 14 45 -2 13 5 28 16 36 26 18 38 45 46 103 3 27 15 66 26 86 13 26
18 51 15 83 -3 25 0 48 5 51 6 3 10 43 10 88 1 79 13 117 37 117 19 0 29 46
24 110 -6 60 -8 65 -28 63 -24 -3 -32 20 -13 32 6 4 8 15 5 25 -3 11 0 22 9
27 8 4 14 15 14 23 -3 39 4 59 27 86 27 32 32 63 13 82 -10 10 -10 15 1 21 19
12 9 132 -13 166 -9 13 -16 32 -16 42 0 37 -32 101 -58 114 -15 7 -39 23 -54
35 -18 15 -35 20 -49 17 -21 -6 -22 -4 -14 28 4 19 8 45 10 57 1 13 8 28 16
33 11 7 11 9 -3 9 -12 0 -18 8 -18 24 0 28 16 43 50 48 14 1 26 11 28 21 3 13
-3 17 -27 17 -29 0 -31 3 -31 35 0 19 5 35 10 35 6 0 10 8 10 17 0 12 -9 5
-27 -20 -22 -31 -28 -35 -36 -22 -5 9 -6 34 -2 56 5 29 2 50 -11 77 -15 32
-18 34 -25 17 -4 -11 -8 -31 -9 -45 0 -14 -16 -42 -34 -64 l-33 -38 -23 23
c-15 16 -24 20 -27 12 -8 -21 -30 -14 -37 11 -3 13 -3 97 0 187 3 90 7 219 7
287 1 110 3 122 19 122 10 0 20 10 24 25 3 14 12 25 20 25 11 0 13 -10 9 -40
-3 -22 -7 -58 -10 -80 -4 -30 -2 -40 9 -40 10 0 16 18 21 68 3 37 10 86 15
109 6 23 10 56 10 72 0 17 4 31 9 31 5 0 8 -8 7 -17 0 -10 6 -18 14 -18 8 0
18 -8 22 -18 4 -10 12 -16 17 -13 9 6 15 -33 30 -217 5 -59 11 -111 15 -114
16 -16 18 18 8 162 -8 125 -14 161 -30 189 -15 25 -17 33 -6 29 8 -3 14 1 14
11 0 10 -9 16 -25 16 -16 0 -25 6 -25 15 0 20 30 32 40 15 5 -8 9 -9 14 -1 4
6 18 11 32 11 13 0 24 3 24 8 0 4 3 17 6 29 7 24 -4 25 -58 4 -29 -11 -84 -5
-94 10 -3 5 4 22 15 38 12 16 21 36 21 45 0 9 5 16 10 16 6 0 10 -12 10 -27 0
-34 14 -58 29 -49 12 8 12 114 -1 122 -14 9 -9 104 8 135 8 17 16 40 18 52 4
31 16 57 27 57 6 0 5 -9 -1 -20 -16 -31 -9 -95 11 -95 27 0 46 -23 54 -62 5
-27 9 -33 16 -22 12 20 11 63 -3 77 -9 9 -9 18 1 38 10 22 9 31 -4 50 -18 28
-20 54 -2 55 10 0 10 2 0 6 -16 6 -17 55 -2 106 10 36 33 50 42 25 3 -9 7 -7
12 6 5 11 3 21 -6 27 -9 6 -10 9 -2 9 6 0 15 -5 19 -11 11 -18 54 42 47 68 -4
18 0 23 21 29 14 3 40 1 57 -5 44 -15 46 -14 19 14 l-23 25 21 0 c16 0 22 6
22 24 0 27 63 101 78 92 6 -3 12 4 14 16 2 18 9 23 33 22 28 0 64 27 65 49 0
11 26 37 37 37 4 0 15 15 24 32 19 40 42 50 38 17 -4 -26 7 -49 22 -49 5 0 9
7 9 15 0 8 4 15 10 15 5 0 7 13 4 29 -5 23 -2 32 14 42 16 10 18 16 10 27 -15
18 5 32 47 32 17 0 40 3 53 6 16 5 22 2 22 -10 0 -10 9 -16 23 -17 12 -1 34
-3 50 -5 31 -3 37 15 7 23 -12 3 -19 10 -17 16 7 23 27 17 42 -12 17 -34 32
-40 41 -16 4 8 16 15 28 15 31 0 66 11 66 21 0 4 -12 7 -27 6 -24 -2 -28 2
-31 27 -5 40 8 48 55 38 23 -5 45 -7 50 -3 5 3 8 26 7 51 -2 58 10 80 43 80
22 0 25 4 21 25 -3 14 -2 25 2 25 4 0 5 12 2 27 -4 23 -2 25 16 21 12 -3 29 0
39 8 17 13 17 13 -2 14 -45 1 32 27 85 29 30 1 57 6 60 12 4 6 12 4 20 -6 20
-24 29 -18 36 23 9 50 17 58 64 66 30 5 40 11 40 25 0 15 10 20 45 25 45 7 85
1 85 -12 0 -4 4 -14 10 -22 7 -12 12 -12 29 4 11 10 17 24 14 32 -6 17 3 44
16 44 5 0 22 -7 37 -15z m364 -55 c0 -13 -11 -13 -30 0 -12 8 -11 10 8 10 12
0 22 -4 22 -10z m-1235 -400 c-4 -11 -2 -20 4 -20 6 0 11 -7 11 -16 0 -10 -6
-14 -14 -11 -7 3 -19 0 -25 -6 -8 -8 -11 -5 -11 10 0 12 -5 23 -12 25 -21 7 0
38 27 38 22 0 25 -4 20 -20z m1597 -33 c-3 -52 14 -99 28 -76 6 9 8 2 8 -19
-1 -21 -6 -32 -16 -32 -8 0 -12 6 -9 15 4 8 2 17 -3 20 -6 4 -10 1 -10 -4 0
-20 -15 -11 -37 23 -20 32 -21 35 -6 80 11 34 20 46 32 44 12 -3 15 -14 13
-51z m-1522 7 c0 -8 -5 -12 -10 -9 -6 4 -8 11 -5 16 9 14 15 11 15 -7z m1607
-264 c2 -45 -12 -52 -29 -16 -12 28 -5 56 15 56 8 0 13 -14 14 -40z m-2762
-908 c-8 -9 -25 20 -18 31 3 5 10 2 15 -7 6 -10 7 -20 3 -24z m-178 -824 c-3
-8 -6 -5 -6 6 -1 11 2 17 5 13 3 -3 4 -12 1 -19z m229 -194 c-3 -8 -12 -14
-20 -14 -16 0 -12 23 8 49 9 12 12 11 14 -3 2 -9 1 -24 -2 -32z m32 -104 c-11
-16 -27 -31 -34 -34 -20 -8 -26 10 -9 27 8 9 15 21 15 28 0 7 8 21 17 31 17
19 17 19 25 -2 5 -15 2 -30 -14 -50z m2167 -750 c9 -14 -14 -52 -28 -47 -15 5
-17 28 -4 45 11 15 24 16 32 2z m-218 -277 c4 -10 11 -22 17 -26 6 -5 -4 -6
-23 -3 -42 7 -43 9 -35 30 8 21 33 21 41 -1z m-2169 -283 c14 -16 23 -18 60
-11 44 9 56 3 46 -22 -3 -8 2 -17 10 -20 9 -4 16 -17 16 -29 0 -27 -36 -108
-47 -108 -4 0 -28 16 -52 35 -24 19 -47 33 -51 30 -4 -2 -15 4 -25 15 -27 30
-10 128 23 130 2 0 11 -9 20 -20z m-108 -144 c0 -7 -9 -21 -20 -31 -11 -10
-20 -13 -20 -7 0 6 5 14 11 17 6 4 8 13 5 20 -2 7 -2 16 1 19 8 8 23 -3 23
-18z m-80 -1 c0 -8 -4 -15 -9 -15 -13 0 -22 16 -14 24 11 11 23 6 23 -9z m-10
-355 c0 -29 -4 -40 -15 -40 -8 0 -13 6 -11 13 3 6 7 24 10 40 9 39 16 33 16
-13z m15 -131 c-3 -60 -25 -93 -25 -38 0 18 -3 44 -6 56 -4 15 -1 22 13 26 10
3 19 5 19 6 1 0 1 -22 -1 -50z m-93 -126 c6 -92 -16 -260 -36 -281 -17 -16
-21 24 -14 128 10 157 17 200 34 200 8 0 14 -16 16 -47z m68 31 c0 -8 -5 -12
-10 -9 -6 4 -8 11 -5 16 9 14 15 11 15 -7z m2857 -50 c-3 -3 -12 -4 -19 -1 -8
3 -5 6 6 6 11 1 17 -2 13 -5z m-2957 -404 c0 -5 -4 -10 -10 -10 -5 0 -10 5
-10 10 0 6 5 10 10 10 6 0 10 -4 10 -10z m3211 -713 c-7 -7 -15 -6 -26 3 -14
11 -13 14 2 26 15 10 19 10 27 -3 5 -9 4 -19 -3 -26z m-3356 -1053 c3 -20 4
-39 1 -42 -3 -3 -6 5 -6 18 0 23 0 23 -15 4 -16 -21 -20 -8 -9 34 9 33 21 27
29 -14z m-10 -114 c3 -5 -1 -10 -10 -10 -9 0 -13 5 -10 10 3 6 8 10 10 10 2 0
7 -4 10 -10z m192 -322 c-3 -8 -6 -5 -6 6 -1 11 2 17 5 13 3 -3 4 -12 1 -19z
m1883 -348 c0 -5 -5 -10 -11 -10 -7 0 -18 -8 -25 -17 -13 -17 -13 -17 -14 0 0
14 20 29 48 36 1 1 2 -3 2 -9z m0 -46 c0 -8 -5 -12 -10 -9 -6 4 -8 11 -5 16 9
14 15 11 15 -7z m-1462 -51 c9 -15 11 -15 27 1 15 14 27 16 69 10 28 -3 61
-10 74 -15 13 -5 35 -9 49 -9 15 0 40 -4 57 -10 17 -5 59 -17 94 -27 49 -13
67 -24 85 -50 29 -43 48 -43 45 0 -3 30 -1 32 35 35 31 3 37 0 37 -17 0 -11 5
-23 11 -27 11 -6 8 -72 -5 -104 -3 -8 -2 -22 4 -30 12 -20 29 -3 47 47 17 50
16 87 -2 123 l-15 28 48 11 c44 11 165 8 204 -5 10 -3 18 -12 18 -20 0 -8 4
-14 9 -14 5 0 12 -8 14 -17 4 -15 5 -15 6 2 1 14 9 21 29 22 35 2 54 -25 46
-67 -5 -23 -11 -29 -24 -25 -13 4 -32 -9 -63 -42 -46 -48 -102 -79 -113 -62
-8 14 -54 11 -59 -4 -6 -13 -70 -20 -121 -12 -19 3 -49 23 -77 50 -25 25 -52
45 -61 45 -9 0 -20 -16 -27 -41 -11 -35 -16 -39 -35 -35 -16 4 -28 -1 -42 -19
-18 -23 -26 -25 -102 -25 -45 0 -90 -5 -102 -11 -16 -9 -23 -7 -38 9 -11 11
-23 22 -27 23 -22 10 -95 121 -100 153 -3 21 -11 36 -19 36 -8 0 -14 -5 -14
-10 0 -14 -51 -59 -67 -60 -7 0 -25 18 -39 40 -25 38 -26 41 -10 58 9 10 16
24 16 30 0 7 6 12 13 12 18 0 67 24 67 33 0 14 49 7 58 -10z m1357 -155 c-11
-50 -23 -54 -23 -9 -1 30 3 41 14 41 12 0 14 -7 9 -32z m82 -130 c-1 -31 -6
-43 -17 -43 -27 0 -10 83 17 85 2 0 2 -19 0 -42z m-1408 -174 c2 -2 2 -7 -2
-10 -9 -10 -57 5 -57 17 0 10 48 4 59 -7z m296 -74 c3 -6 3 -19 0 -30 -5 -16
-15 -20 -55 -20 -47 0 -49 1 -41 23 5 13 20 25 37 28 44 10 52 10 59 -1z m382
-6 c-3 -3 -12 -4 -19 -1 -8 3 -5 6 6 6 11 1 17 -2 13 -5z m13 -953 c0 -16 -28
-20 -34 -5 -4 9 1 14 14 14 11 0 20 -4 20 -9z m-540 -31 c0 -5 -10 -10 -22
-10 -19 0 -20 2 -8 10 19 13 30 13 30 0z m-422 -1297 c-16 -2 -40 -2 -55 0
-16 2 -3 4 27 4 30 0 43 -2 28 -4z m1112 -51 c0 -13 -12 -22 -22 -16 -10 6 -1
24 13 24 5 0 9 -4 9 -8z m2655 -492 c4 -6 -5 -10 -20 -10 -15 0 -24 4 -20 10
3 6 12 10 20 10 8 0 17 -4 20 -10z m-5375 -20 c0 -13 6 -20 14 -18 18 4 20 -3
12 -47 -10 -49 -23 -43 -35 15 -14 63 -14 70 -1 70 6 0 10 -9 10 -20z m5360
-25 c0 -19 -9 -19 -34 0 -19 14 -19 15 7 15 17 0 27 -5 27 -15z m-110 -2 c0
-5 -5 -15 -10 -23 -8 -12 -10 -11 -10 8 0 12 5 22 10 22 6 0 10 -3 10 -7z
m-230 -43 c0 -5 -4 -10 -10 -10 -5 0 -10 5 -10 10 0 6 5 10 10 10 6 0 10 -4
10 -10z m-4993 -127 c-3 -10 -5 -2 -5 17 0 19 2 27 5 18 2 -10 2 -26 0 -35z
m3578 37 c3 -5 1 -10 -4 -10 -6 0 -11 5 -11 10 0 6 2 10 4 10 3 0 8 -4 11 -10z
m1225 -10 c0 -5 7 -10 15 -10 9 0 15 -9 15 -22 0 -13 3 -33 6 -45 8 -31 -10
-29 -24 2 -8 17 -20 25 -37 25 -20 0 -25 5 -25 23 0 13 3 27 7 30 10 11 43 8
43 -3z m-60 -80 c0 -5 13 -10 29 -10 50 0 50 -48 0 -101 -44 -47 -83 -24 -57
33 6 12 0 25 -17 44 -28 30 -31 39 -12 31 8 -3 20 -1 28 4 19 12 29 11 29 -1z
m-59 -101 c-32 -26 -48 -11 -31 30 l12 30 21 -20 22 -20 -24 -20z m22 -56 c12
-11 -14 -33 -39 -33 -17 0 -24 6 -24 20 0 15 7 20 28 20 16 0 32 -3 35 -7z
m-5353 -374 c0 -5 -7 -9 -15 -9 -9 0 -15 9 -15 21 0 18 2 19 15 9 8 -7 15 -16
15 -21z m5756 -14 c18 -13 16 -14 -18 -15 -40 0 -68 8 -68 19 0 14 67 10 86
-4z m-5566 -55 c0 -5 -7 -10 -15 -10 -8 0 -15 5 -15 10 0 6 7 10 15 10 8 0 15
-4 15 -10z m-147 -147 c4 -19 2 -33 -3 -33 -6 0 -10 8 -10 18 0 9 -3 28 -6 42
-5 17 -3 22 3 15 6 -5 13 -25 16 -42z m5388 -17 c7 -14 17 -22 24 -20 6 3 12
-2 12 -11 0 -20 -9 -19 -52 6 -28 17 -33 24 -24 35 17 20 28 17 40 -10z m284
-106 c4 -6 -5 -10 -20 -10 -15 0 -24 4 -20 10 3 6 12 10 20 10 8 0 17 -4 20
-10z m-135 -20 c20 -6 21 -8 5 -8 -11 0 -29 3 -40 8 -25 11 1 11 35 0z
m-10195 -310 c3 -5 1 -10 -4 -10 -6 0 -11 5 -11 10 0 6 2 10 4 10 3 0 8 -4 11
-10z m72 -82 c-3 -7 -5 -2 -5 12 0 14 2 19 5 13 2 -7 2 -19 0 -25z m4493 16
c0 -8 -5 -12 -10 -9 -6 4 -8 11 -5 16 9 14 15 11 15 -7z m97 -80 c-9 -9 -28 6
-21 18 4 6 10 6 17 -1 6 -6 8 -13 4 -17z m63 6 c0 -13 -11 -13 -30 0 -12 8
-11 10 8 10 12 0 22 -4 22 -10z m-4493 -32 c-3 -8 -6 -5 -6 6 -1 11 2 17 5 13
3 -3 4 -12 1 -19z m4646 -169 c34 -20 72 -26 62 -9 -9 15 11 12 24 -4 9 -11 8
-15 -5 -20 -25 -10 -84 -7 -84 4 0 6 -7 10 -15 10 -21 0 -85 32 -85 43 0 14
67 -1 103 -24z m64 15 c-3 -3 -12 -4 -19 -1 -8 3 -5 6 6 6 11 1 17 -2 13 -5z
m-4703 -221 c-4 -15 -7 -44 -6 -63 l2 -35 -13 35 c-7 19 -9 38 -4 41 4 3 9 20
9 38 1 21 4 29 11 22 6 -6 6 -21 1 -38z m1336 -29 c0 -8 -5 -12 -10 -9 -6 4
-8 11 -5 16 9 14 15 11 15 -7z m25 6 c3 -5 1 -10 -4 -10 -6 0 -11 5 -11 10 0
6 2 10 4 10 3 0 8 -4 11 -10z m-803 -39 c16 -19 15 -20 -5 -18 -23 1 -39 16
-31 29 8 13 18 9 36 -11z m818 -227 c0 -28 -3 -35 -17 -32 -31 6 -29 68 2 68
11 0 15 -10 15 -36z m76 -36 c-16 -22 -16 -22 -16 15 0 35 1 37 16 23 14 -14
14 -18 0 -38z m283 14 c-5 -2 -9 -11 -9 -20 0 -10 -3 -13 -10 -6 -5 5 -7 19
-4 31 5 17 9 19 19 10 7 -7 9 -13 4 -15z m-739 -32 c8 -5 12 -11 10 -14 -3 -2
-14 2 -24 10 -22 15 -10 19 14 4z m720 -101 c0 -16 -4 -29 -10 -29 -5 0 -10
-7 -10 -15 0 -8 -5 -15 -11 -15 -10 0 -7 31 7 83 8 26 24 10 24 -24z m-293
-41 c-3 -7 -5 -2 -5 12 0 14 2 19 5 13 2 -7 2 -19 0 -25z m-477 2 c0 -5 -2
-10 -4 -10 -3 0 -8 5 -11 10 -3 6 -1 10 4 10 6 0 11 -4 11 -10z m360 -29 c0
-6 -4 -13 -10 -16 -5 -3 -10 1 -10 9 0 9 5 16 10 16 6 0 10 -4 10 -9z m-298
-121 c3 -17 2 -30 -1 -30 -11 0 -32 41 -26 50 11 19 23 10 27 -20z m808 -5 c0
-8 -4 -15 -10 -15 -5 0 -10 7 -10 15 0 8 5 15 10 15 6 0 10 -7 10 -15z m-484
-42 c-11 -11 -19 6 -11 24 8 17 8 17 12 0 3 -10 2 -21 -1 -24z"/>
<path d="M8560 13591 c0 -11 30 -19 48 -14 6 3 10 9 6 14 -7 12 -54 12 -54 0z"/>
<path d="M8500 13550 c0 -5 4 -10 9 -10 6 0 13 5 16 10 3 6 -1 10 -9 10 -9 0
-16 -4 -16 -10z"/>
<path d="M9906 12541 c-4 -7 -5 -15 -2 -18 9 -9 19 4 14 18 -4 11 -6 11 -12 0z"/>
<path d="M7585 12480 c-3 -5 -1 -10 4 -10 6 0 11 5 11 10 0 6 -2 10 -4 10 -3
0 -8 -4 -11 -10z"/>
<path d="M7361 12144 c0 -11 3 -14 6 -6 3 7 2 16 -1 19 -3 4 -6 -2 -5 -13z"/>
<path d="M7242 12008 c-7 -7 -12 -20 -12 -30 0 -10 -7 -18 -15 -18 -8 0 -15
-5 -15 -11 0 -5 5 -7 10 -4 6 3 10 -5 10 -19 0 -14 7 -29 15 -33 17 -10 33
-93 17 -93 -21 0 -31 -60 -25 -150 3 -50 8 -89 10 -87 4 5 23 171 23 206 0 14
6 34 14 46 12 18 12 27 0 60 -7 23 -11 56 -8 76 7 45 -6 75 -24 57z"/>
<path d="M7500 11490 c-13 -8 -12 -10 3 -10 9 0 17 5 17 10 0 12 -1 12 -20 0z"/>
<path d="M10178 11393 c7 -3 16 -2 19 1 4 3 -2 6 -13 5 -11 0 -14 -3 -6 -6z"/>
<path d="M9470 9896 c0 -9 5 -16 10 -16 6 0 10 4 10 9 0 6 -4 13 -10 16 -5 3
-10 -1 -10 -9z"/>
<path d="M9658 9183 c7 -3 16 -2 19 1 4 3 -2 6 -13 5 -11 0 -14 -3 -6 -6z"/>
<path d="M10084 8995 c-4 -9 -4 -19 0 -22 3 -4 6 0 6 8 0 11 2 11 10 -1 8 -13
10 -13 10 2 0 23 -19 33 -26 13z"/>
<path d="M6880 8970 c-1 -3 -4 -44 -6 -91 -4 -69 -2 -89 11 -99 17 -14 17 -15
15 65 -1 53 -15 139 -20 125z"/>
<path d="M6879 8723 c0 -21 -3 -49 -6 -63 -5 -26 -8 -60 -18 -240 -4 -58 -11
-136 -17 -175 -5 -38 -10 -92 -9 -120 0 -27 -6 -94 -14 -148 -20 -127 -26
-217 -14 -217 5 0 9 11 9 25 0 14 9 42 20 62 13 24 20 57 20 91 0 29 5 62 11
73 5 11 11 81 12 157 1 75 6 143 10 149 4 7 7 41 6 75 0 39 5 77 15 100 10 23
14 56 12 90 -2 29 -4 81 -5 116 -1 48 -4 62 -16 62 -11 0 -15 -11 -16 -37z"/>
<path d="M7040 8378 c0 -5 -10 -8 -22 -8 -18 0 -20 -2 -9 -9 11 -7 12 -13 3
-23 -6 -8 -12 -45 -14 -83 -2 -55 -6 -70 -20 -73 -11 -2 -20 8 -28 32 -25 78
-45 13 -30 -96 7 -48 7 -74 0 -78 -11 -7 -6 -138 10 -219 5 -30 20 -69 31 -88
15 -24 18 -38 11 -45 -11 -11 -1 -48 25 -98 7 -14 13 -33 13 -43 0 -10 7 -20
15 -23 8 -4 15 -16 15 -29 0 -32 21 -46 60 -38 28 5 32 4 27 -10 -5 -12 0 -16
21 -16 15 0 43 -3 62 -6 19 -3 80 -9 135 -14 81 -7 102 -6 108 5 6 10 21 12
56 8 26 -3 59 0 74 5 17 7 28 7 32 1 4 -7 13 -6 25 0 13 7 21 7 25 0 3 -5 15
-10 26 -10 23 0 52 -16 90 -49 41 -35 129 -73 174 -75 64 -4 197 -48 203 -68
2 -10 10 -18 18 -18 7 0 25 -16 40 -35 l27 -35 34 20 c19 11 42 20 52 20 22 0
71 73 71 106 0 51 44 101 83 95 4 -1 7 6 7 15 0 8 -4 12 -10 9 -6 -4 -10 5
-10 19 0 14 5 26 10 26 13 0 37 54 45 100 5 33 15 47 152 199 18 20 33 44 33
53 0 9 6 23 13 30 16 17 38 80 31 87 -3 3 -10 -1 -14 -9 -21 -34 -28 -41 -41
-44 -8 -1 -27 -10 -42 -21 -24 -15 -32 -16 -48 -7 -16 10 -21 10 -25 -3 -4 -8
-3 -22 0 -31 4 -9 2 -13 -5 -8 -6 4 -15 1 -19 -6 -5 -8 -29 -14 -59 -14 -36
-1 -50 -5 -47 -13 7 -18 -9 -24 -37 -14 -13 5 -53 12 -88 15 -140 13 -244 29
-250 37 -5 9 -41 12 -247 24 -72 4 -141 21 -154 39 -7 10 -65 -11 -86 -31 -7
-7 -23 -13 -35 -14 -44 -1 -80 -10 -103 -25 -37 -25 -88 -33 -115 -19 -15 8
-31 10 -45 5 -12 -5 -46 -8 -74 -8 -46 1 -53 4 -66 31 -9 16 -13 39 -10 51 3
12 -1 44 -9 70 -8 27 -15 70 -15 94 0 50 19 112 34 112 5 0 18 7 27 16 14 13
16 21 8 36 -12 22 -4 52 11 43 5 -3 10 -1 10 4 0 6 9 11 21 11 13 0 23 8 26
21 3 11 11 18 19 15 9 -4 9 6 -4 40 -11 28 -22 44 -33 44 -10 0 -24 6 -31 13
-14 15 -168 19 -168 5z m80 -25 c0 -8 -5 -13 -12 -11 -18 6 -21 25 -3 25 8 0
15 -7 15 -14z m-155 -565 c-18 -13 -28 23 -14 50 l14 25 5 -34 c3 -19 1 -37
-5 -41z"/>
<path d="M6920 8326 c0 -9 5 -16 10 -16 6 0 10 4 10 9 0 6 -4 13 -10 16 -5 3
-10 -1 -10 -9z"/>
<path d="M7165 7830 c3 -5 8 -10 11 -10 2 0 4 5 4 10 0 6 -5 10 -11 10 -5 0
-7 -4 -4 -10z"/>
<path d="M6778 7701 c-5 -18 -8 -50 -8 -70 1 -29 3 -33 11 -18 5 9 9 41 7 70
-3 49 -3 50 -10 18z"/>
<path d="M8640 5411 c0 -20 17 -37 27 -28 7 8 -7 47 -18 47 -5 0 -9 -9 -9 -19z"/>
<path d="M8193 5025 c-6 -18 25 -58 38 -49 5 3 9 18 9 35 0 22 -5 29 -20 29
-11 0 -23 -7 -27 -15z"/>
<path d="M9900 13510 c0 -5 5 -10 10 -10 6 0 10 5 10 10 0 6 -4 10 -10 10 -5
0 -10 -4 -10 -10z"/>
<path d="M7120 9950 c0 -5 7 -7 15 -4 8 4 15 8 15 10 0 2 -7 4 -15 4 -8 0 -15
-4 -15 -10z"/>
<path d="M8080 5996 c0 -9 5 -16 10 -16 6 0 10 4 10 9 0 6 -4 13 -10 16 -5 3
-10 -1 -10 -9z"/>
<path d="M8145 5990 c-3 -5 -1 -10 4 -10 6 0 11 5 11 10 0 6 -2 10 -4 10 -3 0
-8 -4 -11 -10z"/>
<path d="M7352 5933 c-24 -9 6 -30 38 -25 38 5 41 32 3 31 -16 0 -34 -3 -41
-6z"/>
<path d="M0 2075 l0 -2075 35 0 35 0 0 393 c0 215 3 1126 7 2022 5 1284 4
1638 -6 1667 -11 34 -43 68 -63 68 -5 0 -8 -934 -8 -2075z"/>
<path d="M5560 2690 c0 -5 9 -10 20 -10 15 0 20 -7 21 -27 0 -16 3 -22 6 -15
10 25 -7 62 -27 62 -11 0 -20 -4 -20 -10z"/>
<path d="M10465 2590 c3 -5 8 -10 11 -10 2 0 4 5 4 10 0 6 -5 10 -11 10 -5 0
-7 -4 -4 -10z"/>
<path d="M10300 2410 c0 -5 5 -10 10 -10 6 0 10 5 10 10 0 6 -4 10 -10 10 -5
0 -10 -4 -10 -10z"/>
<path d="M5134 2033 c11 -11 66 -12 66 -2 0 5 -16 9 -37 9 -20 0 -33 -3 -29
-7z"/>
<path d="M10270 1945 c0 -10 56 -32 69 -27 9 3 2 10 -19 18 -33 14 -50 17 -50
9z"/>
<path d="M5196 1762 c-3 -5 -2 -18 1 -31 6 -22 6 -22 20 -1 14 20 10 40 -7 40
-5 0 -11 -4 -14 -8z"/>
<path d="M5145 1640 c-4 -6 -3 -14 0 -20 9 -15 35 -12 35 4 0 17 -27 29 -35
16z"/>
<path d="M5300 1530 c0 -5 5 -10 10 -10 6 0 10 5 10 10 0 6 -4 10 -10 10 -5 0
-10 -4 -10 -10z"/>
<path d="M5300 1361 c0 -14 18 -23 31 -15 8 4 7 9 -2 15 -18 11 -29 11 -29 0z"/>
<path d="M5266 1082 c-3 -5 1 -13 10 -16 25 -10 82 -7 89 4 4 6 -6 10 -22 10
-15 0 -38 3 -49 6 -12 3 -24 1 -28 -4z"/>
<path d="M4520 820 c0 -13 28 -25 38 -16 3 4 0 11 -8 16 -20 13 -30 12 -30 0z"/>
<path d="M4450 780 c0 -5 7 -10 15 -10 8 0 15 -7 15 -17 0 -9 3 -14 6 -10 10
10 -7 47 -22 47 -8 0 -14 -4 -14 -10z"/>
<path d="M321 744 c0 -11 3 -14 6 -6 3 7 2 16 -1 19 -3 4 -6 -2 -5 -13z"/>
<path d="M4558 735 c-3 -3 -3 -17 0 -30 5 -29 32 -34 32 -6 0 19 -23 45 -32
36z"/>
<path d="M5993 710 c4 -16 1 -24 -14 -27 -13 -4 -19 -14 -19 -34 0 -20 -13
-41 -45 -72 -30 -30 -45 -53 -45 -71 0 -14 -16 -48 -36 -75 -19 -28 -36 -59
-37 -70 0 -11 -9 -22 -19 -24 -24 -7 -24 -56 1 -101 11 -19 18 -36 15 -38 -9
-9 32 -36 70 -47 75 -20 163 39 197 132 27 74 26 200 -2 246 -14 23 -18 42
-14 59 6 23 4 24 -10 12 -14 -11 -19 -10 -37 7 -26 27 -18 73 13 73 27 0 22
43 -5 48 -15 3 -18 0 -13 -18z m24 -216 c8 -23 -23 -52 -39 -36 -20 20 -28 14
-26 -17 2 -17 -1 -30 -7 -30 -5 0 -9 10 -8 22 1 16 0 17 -3 4 -4 -13 -11 -16
-26 -11 -16 5 -20 3 -15 -8 3 -8 1 -21 -3 -29 -7 -11 -10 -11 -15 3 -9 23 45
98 66 92 9 -2 22 2 29 11 16 20 39 19 47 -1z"/>
<path d="M4466 673 c9 -39 21 -49 29 -24 4 13 1 27 -9 36 -22 22 -27 18 -20
-12z"/>
<path d="M910 508 c0 -36 4 -35 14 5 4 16 2 27 -4 27 -5 0 -10 -14 -10 -32z"/>
<path d="M921 454 c0 -11 3 -14 6 -6 3 7 2 16 -1 19 -3 4 -6 -2 -5 -13z"/>
<path d="M4404 439 c-7 -12 26 -79 39 -79 5 0 7 10 3 23 -3 12 -6 32 -6 45 0
23 -24 31 -36 11z"/>
<path d="M4480 340 c0 -13 7 -20 20 -20 13 0 20 7 20 20 0 13 -7 20 -20 20
-13 0 -20 -7 -20 -20z"/>
<path d="M854 219 c-3 -6 0 -15 7 -20 23 -14 30 -10 19 11 -12 23 -16 24 -26
9z"/>
<path d="M9480 43 c-280 -4 -2179 -23 -2980 -29 -432 -4 -787 -8 -789 -10 -2
-2 960 -4 2138 -4 1558 0 2140 3 2135 11 -18 29 -74 39 -211 37 -76 -1 -208
-4 -293 -5z"/>
</g>
</svg>
